<svg xmlns="http://www.w3.org/2000/svg" viewBox="0 0 64 64"><g data-name="Layer 7"><path fill="#b90005" d="M39.59,14A7.3,7.3,0,0,0,26.24,8.11l-2.12,4.37-3.24,6.66c-.21.28-.47.57-.74.87a9.09,9.09,0,0,1-3.52,2.35c-1.57.55-2.58.37-4.35.59a17.27,17.27,0,0,0-6.5,2.25,15.43,15.43,0,0,1,4.35-.59,15.59,15.59,0,0,1,3.81.5,21.06,21.06,0,0,1,6.56,3.19c.18.1.36.21.56.31a10.17,10.17,0,0,0,13.76-4.75L37,19.35"/><path d="M25.55,30.72a10.67,10.67,0,0,1-5-1.22l-.43-.24L20,29.17l-.86-.54a17.32,17.32,0,0,0-5.46-2.55A14.57,14.57,0,0,0,6,26.16a1,1,0,0,1-.77-1.83A18.45,18.45,0,0,1,12.15,22c.62-.08,1.16-.11,1.65-.14a8.05,8.05,0,0,0,2.48-.41,7.89,7.89,0,0,0,3.13-2.08c.23-.25.44-.49.62-.72L25.34,7.67A8.32,8.32,0,0,1,36.43,3.83a8.31,8.31,0,0,1,4.08,10.52,1,1,0,1,1-1.85-.74A6.3,6.3,0,0,0,27.14,8.54l-5.36,11a1.74,1.74,0,0,1-.11.18,10.79,10.79,0,0,1-.81.94A9.88,9.88,0,0,1,17,23.3a10.26,10.26,0,0,1-3,.52l-.92.06c.4.07.79.16,1.18.26A19.35,19.35,0,0,1,20.23,27l.77.49.17.09.32.18a8.81,8.81,0,0,0,6.88.56,9.51,9.51,0,0,0,5.54-4.85l2.19-4.51a1,1,0,0,1,1.8.88l-2.19,4.5A11.45,11.45,0,0,1,29,30.17,11,11,0,0,1,25.55,30.72Z"/><rect width="12.16" height="6.08" x="28.94" y="12.04" fill="#bfbfbf" rx="3.04" ry="3.04" transform="rotate(25.91 35.028 15.08)"/><polyline fill="#b90005" points="20.88 19.14 24.12 12.48 20.84 10.89 17.12 18.55 20.14 20.01"/><path d="M37.75 20.45A4 4 0 0 1 36 20h0l-5.47-2.66a4 4 0 1 1 3.53-7.26l5.47 2.65a4 4 0 0 1-1.77 7.68zm-.88-2.21a2 2 0 0 0 2.72-.94 2.06 2.06 0 0 0 .1-1.56 2 2 0 0 0-1-1.17l-5.47-2.66a2 2 0 0 0-2.82 2.51 2 2 0 0 0 1 1.16zM20.13 21a1 1 0 0 1-.43-.1l-3-1.47a1 1 0 0 1-.46-1.33l3.72-7.66a1 1 0 0 1 .57-.51 1 1 0 0 1 .76.05l3.28 1.59A1 1 0 0 1 25 12.92l-3.24 6.66a1 1 0 0 1-.65.53.83.83 0 0 1-.1.34A1 1 0 0 1 20.13 21zm-1.68-2.93l1.49.73a1 1 0 0 1 0-.1L22.78 13l-1.48-.72z"/><path fill="#202020" d="M56.37,32.9a8.15,8.15,0,0,0-7.95-7.23,8.44,8.44,0,0,0-8.26,8.5V57.29a2.71,2.71,0,0,0,5.42,0v-.15a2.56,2.56,0,0,1,2.56-2.56h.31A2.56,2.56,0,0,1,51,57.14v.15a2.71,2.71,0,0,0,5.42,0V39.22"/><rect width="4.52" height="11.74" x="35.65" y="37.42" fill="#202020"/><path d="M53.71,61A3.72,3.72,0,0,1,50,57.29v-.15a1.56,1.56,0,0,0-1.55-1.56h-.31a1.56,1.56,0,0,0-1.56,1.56v.15a3.71,3.71,0,0,1-7.42,0V34.17a9.73,9.73,0,0,1,2.91-6.88,8.85,8.85,0,0,1,6.36-2.62,9.13,9.13,0,0,1,8.93,8.12,1,1,0,0,1-2,.22,7.15,7.15,0,0,0-7-6.34,6.82,6.82,0,0,0-4.92,2,7.7,7.7,0,0,0-2.32,5.45V57.29a1.72,1.72,0,0,0,.5,1.21,1.74,1.74,0,0,0,1.21.5,1.72,1.72,0,0,0,1.71-1.71v-.15a3.57,3.57,0,0,1,3.56-3.56h.31A3.56,3.56,0,0,1,52,57.14v.15a1.72,1.72,0,0,0,.5,1.21,1.74,1.74,0,0,0,1.21.5,1.72,1.72,0,0,0,1.71-1.71V39.22a1,1,0,0,1,2,0V57.29A3.71,3.71,0,0,1,53.71,61Z"/><rect width="12.65" height="8.85" x="45.58" y="31.64" fill="#bfbfbf" rx="4.43" ry="4.43"/><path d="M53.8 41.49H50a5.43 5.43 0 1 1 0-10.85H53.8a5.43 5.43 0 1 1 0 10.85zM50 32.64a3.43 3.43 0 1 0 0 6.85H53.8a3.43 3.43 0 1 0 0-6.85zM40.16 50.16H35.65a1 1 0 0 1-1-1V37.42a1 1 0 0 1 1-1h4.51a1 1 0 0 1 1 1V49.16A1 1 0 0 1 40.16 50.16zm-3.51-2h2.51V38.42H36.65z"/></g></svg>