<svg xmlns="http://www.w3.org/2000/svg" viewBox="0 0 64 64"><g data-name="Layer 2"><polyline fill="#666" points="9.63 39.14 9.63 39.14 3 6 61 6 54.37 39.14 51.41 39.14"/><path d="M9.63,40.14a1,1,0,0,1-1-.8L2,6.2a1,1,0,0,1,.21-.83A1,1,0,0,1,3,5H61a1,1,0,0,1,.77.37A1,1,0,0,1,62,6.2L55.35,39.34a1,1,0,0,1-1,.8h-3a1,1,0,0,1,0-2h2.14L59.78,7H4.22l6.39,32a1,1,0,0,1-.79,1.17A.62.62,0,0,1,9.63,40.14Z"/><path fill="#fff" d="M51.89,21.74V15.11a2.49,2.49,0,0,0-5,0V28.37a2.48,2.48,0,0,0,2.49,2.49,2.66,2.66,0,0,0,.85-.15"/><polyline fill="#202020" points="9.63 39.14 9.63 39.14 3 58 61 58 54.37 39.14 52.17 39.14"/><path fill="#b90005" d="M20.2,57.37H17.91V27.49c0-8.2,7-14.86,15.58-14.86a15.93,15.93,0,0,1,10.39,3.79,14.63,14.63,0,0,1,5,8.77l1.3,11.06,2.45,21.12"/><path fill="#fff" d="M18.74,21.74V15.11a2.49,2.49,0,0,0-5,0V28.37a2.48,2.48,0,0,0,2.49,2.49,2.55,2.55,0,0,0,.84-.15"/><path d="M52.63 58.37a1 1 0 0 1-1-.88L49.19 36.36a1 1 0 0 1 2-.23l2.45 21.13a1 1 0 0 1-.87 1.1zM20.2 58.37H17.91a1 1 0 0 1-1-1V27.49c0-8.74 7.44-15.86 16.58-15.86a17 17 0 0 1 11 4A15.69 15.69 0 0 1 49.86 25 1 1 0 0 1 49 26.18a1 1 0 0 1-1.15-.83 13.7 13.7 0 0 0-4.66-8.17 15 15 0 0 0-9.74-3.55c-8 0-14.58 6.22-14.58 13.86V56.37H20.2a1 1 0 0 1 0 2z"/><rect width="26.71" height="13.91" x="26" y="23.9" fill="#bfbfbf" rx="6.95" ry="6.95"/><path d="M45.76,38.81H33A8,8,0,0,1,33,22.9H45.76a8,8,0,0,1,0,15.91ZM33,24.9a6,6,0,0,0,0,11.91H45.76a6,6,0,0,0,0-11.91Z"/><rect width="6.63" height="21.54" x="11.29" y="35.83" fill="#b90005" rx="2.04" ry="2.04"/><path d="M15.88,58.37H13.32a3,3,0,0,1-3-3V37.86a3,3,0,0,1,3-3h2.56a3,3,0,0,1,3,3V55.34A3,3,0,0,1,15.88,58.37ZM13.32,36.83a1,1,0,0,0-1,1V55.34a1,1,0,0,0,1,1h2.56a1,1,0,0,0,1-1V37.86a1,1,0,0,0-1-1Z"/><path d="M61,59H3a1,1,0,0,1-.94-1.33L8.69,38.81a1,1,0,1,1,1.88.66L4.41,57H59.59L53.66,40.14H52.17a1,1,0,0,1,0-2h2.2a1,1,0,0,1,.94.67l6.63,18.86A1,1,0,0,1,61,59Z"/><path d="M9.63,40.14a1,1,0,0,1-1-.8L2,6.2a1,1,0,0,1,.21-.83A1,1,0,0,1,3,5H61a1,1,0,0,1,.77.37A1,1,0,0,1,62,6.2L55.35,39.34a1,1,0,0,1-1,.8h-3a1,1,0,0,1,0-2h2.14L59.78,7H4.22l6.39,32a1,1,0,0,1-.79,1.17A.62.62,0,0,1,9.63,40.14Z"/><path d="M16.26 31.86a3.5 3.5 0 0 1-3.49-3.49V15.11a3.49 3.49 0 0 1 7 0v6.63a1 1 0 0 1-2 0V15.11a1.49 1.49 0 0 0-3 0V28.37a1.49 1.49 0 0 0 1.49 1.49 1.43 1.43 0 0 0 .5-.09 1 1 0 0 1 1.28.59 1 1 0 0 1-.59 1.29A3.43 3.43 0 0 1 16.26 31.86zM51.89 27.71a1 1 0 0 1-1-1V15.11a1.49 1.49 0 0 0-3 0v4.56a1 1 0 0 1-2 0V15.11a3.49 3.49 0 0 1 7 0v11.6A1 1 0 0 1 51.89 27.71z"/></g></svg>