<svg xmlns="http://www.w3.org/2000/svg" viewBox="0 0 64 64"><g data-name="Layer 4"><path fill="#b90005" d="M57.08,21.31a13.71,13.71,0,0,0-4.26-6.52,14.8,14.8,0,0,0-9.63-3.51c-8,0-14.43,6.17-14.43,13.77V52.72H58.65V35.16"/><path d="M58.65,53.72H28.76a1,1,0,0,1-1-1V25.05c0-8.15,6.92-14.77,15.43-14.77A15.8,15.8,0,0,1,53.47,14,14.7,14.7,0,0,1,58,21a1,1,0,0,1-1.92.56,12.67,12.67,0,0,0-3.95-6,13.82,13.82,0,0,0-9-3.27c-7.4,0-13.43,5.72-13.43,12.77V51.72H57.65V35.16a1,1,0,0,1,2,0V52.72A1,1,0,0,1,58.65,53.72Z"/><rect width="26.31" height="13.7" x="36" y="21.31" fill="#bfbfbf" rx="6.85" ry="6.85"/><path d="M55.46,36H42.85a7.85,7.85,0,0,1,0-15.7H55.46a7.85,7.85,0,1,1,0,15.7ZM42.85,22.31a5.85,5.85,0,0,0,0,11.7H55.46a5.85,5.85,0,1,0,0-11.7Z"/><rect width="6.14" height="19.96" x="22.62" y="32.77" fill="#b90005" rx="1.89" ry="1.89"/><path d="M26.88,53.72H24.51a2.89,2.89,0,0,1-2.89-2.88V34.65a2.89,2.89,0,0,1,2.89-2.88h2.37a2.88,2.88,0,0,1,2.88,2.88V50.84A2.88,2.88,0,0,1,26.88,53.72ZM24.51,33.77a.89.89,0,0,0-.89.88V50.84a.88.88,0,0,0,.89.88h2.37a.88.88,0,0,0,.88-.88V34.65a.89.89,0,0,0-.88-.88Z"/><path fill="#202020" d="M18.61,18.55A7.89,7.89,0,0,0,11,12.15a8.18,8.18,0,0,0-8,8.23V42.77a2.63,2.63,0,1,0,5.25,0v-.14a2.48,2.48,0,0,1,2.48-2.48H11a2.48,2.48,0,0,1,2.48,2.48v.14a2.63,2.63,0,1,0,5.25,0V26.64"/><path d="M16.12,46.4a3.62,3.62,0,0,1-3.62-3.63v-.14A1.48,1.48,0,0,0,11,41.15h-.29a1.48,1.48,0,0,0-1.48,1.48v.14a3.63,3.63,0,1,1-7.25,0V20.38a9.45,9.45,0,0,1,2.83-6.69A8.68,8.68,0,0,1,11,11.15a8.78,8.78,0,0,1,6.14,2.61,8.72,8.72,0,0,1,2.44,4.6,1,1,0,0,1-2,.37,6.73,6.73,0,0,0-1.89-3.56,6.82,6.82,0,0,0-4.75-2,6.61,6.61,0,0,0-4.75,2A7.42,7.42,0,0,0,4,20.38V42.77a1.6,1.6,0,0,0,.48,1.15,1.59,1.59,0,0,0,1.15.48,1.63,1.63,0,0,0,1.62-1.63v-.14a3.48,3.48,0,0,1,3.48-3.48H11a3.48,3.48,0,0,1,3.48,3.48v.14A1.6,1.6,0,0,0,15,43.92a1.58,1.58,0,0,0,1.14.48,1.63,1.63,0,0,0,1.63-1.63V26.64a1,1,0,0,1,2,0V42.77A3.64,3.64,0,0,1,16.12,46.4Z"/><rect width="14" height="8.75" x="6.5" y="18.28" fill="#bfbfbf" rx="4.37" ry="4.37"/><path d="M16.12,28H10.87a5.38,5.38,0,0,1,0-10.75h5.25a5.38,5.38,0,1,1,0,10.75Zm-5.25-8.75a3.38,3.38,0,0,0,0,6.75h5.25a3.38,3.38,0,1,0,0-6.75Z"/><polyline fill="#202020" points="11.89 25.71 10.1 24.31 11.71 22.24 13.91 23.95"/><path fill="#202020" d="M8.62,26h7a2.62,2.62,0,0,1,2.62,2.62v0a2.62,2.62,0,0,1-2.62,2.62h-7a0,0,0,0,1,0,0V26A0,0,0,0,1,8.62,26Z" transform="rotate(-52.1 13.43 28.578)"/><path fill="#fff" d="M17.68,26.89l5.07,3.95a2.61,2.61,0,0,1-3.68.46l-2.5-1.95"/><path d="M12.55,35a1,1,0,0,1-.62-.21L7.79,31.55a1,1,0,0,1-.18-1.4l4.3-5.53A3.63,3.63,0,0,1,17,24a3.57,3.57,0,0,1,1.37,2.41,3.64,3.64,0,0,1-.73,2.68l-4.3,5.52a1.06,1.06,0,0,1-.67.38Zm-2.74-4.4,2.56,2,3.69-4.73h0a1.67,1.67,0,0,0,.33-1.2,1.6,1.6,0,0,0-.62-1.08,1.62,1.62,0,0,0-2.28.28Z"/><path d="M20.68 32.85a3.56 3.56 0 0 1-2.22-.76l-2.51-2a1 1 0 0 1 1.23-1.58l2.5 2a1.58 1.58 0 0 0 1.2.33 1.2 1.2 0 0 0 .2 0l-4-3.13a1 1 0 0 1-.18-1.4 1 1 0 0 1 1.41-.18l5.07 3.95a1 1 0 0 1 .17 1.41A3.62 3.62 0 0 1 20.68 32.85zM11.89 26.71a1 1 0 0 1-.62-.21L9.48 25.1a1 1 0 0 1-.17-1.4l1.61-2.07a1 1 0 0 1 .66-.38 1 1 0 0 1 .74.2l2.2 1.72a1 1 0 0 1 .18 1.4 1 1 0 0 1-1.41.17l-1.41-1.09-.38.49 1 .78a1 1 0 0 1-.61 1.79z"/></g></svg>