<svg xmlns="http://www.w3.org/2000/svg" viewBox="0 0 64 64"><g data-name="Layer 8"><path fill="#202020" d="M23.79,22a8.16,8.16,0,0,0-8-7.25,8.47,8.47,0,0,0-8.28,8.53V46.5a2.72,2.72,0,0,0,5.44,0v-.15a2.57,2.57,0,0,1,2.56-2.57h.31a2.57,2.57,0,0,1,2.57,2.57v.15a2.72,2.72,0,1,0,5.43,0V28.38"/><rect width="4.53" height="11.78" x="3" y="26.56" fill="#202020"/><path d="M21.13,50.22a3.72,3.72,0,0,1-3.72-3.72v-.15a1.57,1.57,0,0,0-1.57-1.57h-.31A1.56,1.56,0,0,0,14,46.35v.15a3.72,3.72,0,0,1-7.44,0V23.31a9.77,9.77,0,0,1,2.92-6.9,8.94,8.94,0,0,1,6.38-2.63,9.16,9.16,0,0,1,9,8.14,1,1,0,1,1-2,.22,7.16,7.16,0,0,0-7-6.36,7,7,0,0,0-5,2,7.77,7.77,0,0,0-2.32,5.48V46.5a1.74,1.74,0,0,0,1.72,1.72A1.72,1.72,0,0,0,12,46.5v-.15a3.57,3.57,0,0,1,3.56-3.57h.31a3.57,3.57,0,0,1,3.57,3.57v.15a1.72,1.72,0,1,0,3.43,0V28.38a1,1,0,0,1,2,0V46.5A3.72,3.72,0,0,1,21.13,50.22Z"/><rect width="12.69" height="8.88" x="12.97" y="20.76" fill="#bfbfbf" rx="4.44" ry="4.44"/><path d="M21.22 30.64H17.41a5.44 5.44 0 0 1 0-10.88h3.81a5.44 5.44 0 1 1 0 10.88zm-3.81-8.88a3.44 3.44 0 0 0 0 6.88h3.81a3.44 3.44 0 1 0 0-6.88zM7.53 39.34H3a1 1 0 0 1-1-1V26.56a1 1 0 0 1 1-1H7.53a1 1 0 0 1 1 1V38.34A1 1 0 0 1 7.53 39.34zM4 37.34H6.53V27.56H4z"/><path fill="#bfbfbf" d="M34.27,35.63a2.27,2.27,0,0,1,1.81,3.62H47.41v3.63H36.08A2.27,2.27,0,1,1,34.27,42a3.42,3.42,0,0,1,.45,0v-1.9a2.3,2.3,0,0,1-.45,0,2.27,2.27,0,1,1,0-4.53Z"/><path d="M34.27,47.5a3.27,3.27,0,0,1-.78-6.44,3.26,3.26,0,1,1,4-3.17c0,.12,0,.24,0,.36h9.9a1,1,0,0,1,1,1v3.63a1,1,0,0,1-1,1h-9.9c0,.11,0,.23,0,.35A3.26,3.26,0,0,1,34.27,47.5Zm0-4.53a1.27,1.27,0,1,0,1.26,1.26,1.25,1.25,0,0,0-.25-.75,1,1,0,0,1-.2-.53,1.13,1.13,0,0,1-.55,0A1.09,1.09,0,0,0,34.27,43Zm1.45-2.79v1.76a1,1,0,0,1,.36-.06H46.41V40.25H36.08A.86.86,0,0,1,35.72,40.18Zm-1-1.07a.89.89,0,0,1,.36.07.94.94,0,0,1,.2-.53,1.28,1.28,0,0,0,.25-.76,1.27,1.27,0,1,0-1.26,1.27,2.06,2.06,0,0,0,.26,0Z"/><path fill="#b90005" d="M43.78,49.22V32.91h14.5a2.72,2.72,0,1,1,0,5.43h-.15a2.58,2.58,0,0,0-2.57,2.57v.31a2.57,2.57,0,0,0,2.57,2.56h.15a2.72,2.72,0,0,1,0,5.44H43.78Z"/><path d="M58.28,50.22H43.78a1,1,0,0,1-1-1V32.91a1,1,0,0,1,1-1h14.5A3.73,3.73,0,0,1,62,35.63a3.72,3.72,0,0,1-3.72,3.71h-.15a1.57,1.57,0,0,0-1.57,1.57v.31a1.56,1.56,0,0,0,1.57,1.56h.15a3.72,3.72,0,0,1,0,7.44Zm-13.5-2h13.5a1.72,1.72,0,0,0,0-3.44h-.15a3.57,3.57,0,0,1-3.57-3.56v-.31a3.57,3.57,0,0,1,3.57-3.57h.15a1.7,1.7,0,0,0,1.22-.5,1.72,1.72,0,0,0-1.22-2.93H44.78Z"/></g></svg>